<svg width="24" height="24" viewBox="0 0 24 24" fill="none" xmlns="http://www.w3.org/2000/svg"><rect width="24" height="24" rx="6" fill="#2496ED"/><rect x="6" y="9" width="2" height="2" fill="white"/><rect x="9" y="9" width="2" height="2" fill="white"/><rect x="12" y="9" width="2" height="2" fill="white"/><rect x="9" y="6" width="2" height="2" fill="white"/><rect x="12" y="6" width="2" height="2" fill="white"/><rect x="15" y="9" width="2" height="2" fill="white"/><path d="M4 12C5 15 8 16 14 16C18 16 19 14 19 13.5C18 13.5 17 13.5 16 13C15 12 15 11 16 10C14 10 12 12 4 12Z" fill="white"/></svg>